HIERARCHY
ROOT Hips
{
 OFFSET 0.000000 0.000000 0.000000
 CHANNELS 6 Xposition Yposition Zposition Yrotation Xrotation Zrotation
 JOINT Chest
 {
  OFFSET 0.000000 9.585900 0.002600
  CHANNELS 3 Yrotation Xrotation Zrotation
  JOINT Chest2
  {
   OFFSET 0.000000 9.601200 -0.005300
   CHANNELS 3 Yrotation Xrotation Zrotation
   JOINT Chest3
   {
    OFFSET 0.000000 9.561800 0.000000
    CHANNELS 3 Yrotation Xrotation Zrotation
    JOINT Chest4
    {
     OFFSET 0.000000 9.552100 0.000000
     CHANNELS 3 Yrotation Xrotation Zrotation
     JOINT Neck
     {
      OFFSET 0.000000 14.453000 0.000000
      CHANNELS 3 Yrotation Xrotation Zrotation
      JOINT Head
      {
       OFFSET 0.000000 8.936500 -0.011300
       CHANNELS 3 Yrotation Xrotation Zrotation
       End Site
       {
        OFFSET 0.000000 17.073600 -0.006000
       }
      }
     }
     JOINT RightCollar
     {
      OFFSET -2.921100 9.558500 0.000000
      CHANNELS 3 Yrotation Xrotation Zrotation
      JOINT RightShoulder
      {
       OFFSET -13.519700 0.000000 0.000000
       CHANNELS 3 Yrotation Xrotation Zrotation
       JOINT RightElbow
       {
        OFFSET 0.000000 -29.696600 0.000000
        CHANNELS 3 Yrotation Xrotation Zrotation
        JOINT RightWrist
        {
         OFFSET 0.000000 -24.004700 0.000000
         CHANNELS 3 Yrotation Xrotation Zrotation
         End Site
         {
          OFFSET 0.000000 -17.728500 0.000000
         }
        }
       }
      }
     }
     JOINT LeftCollar
     {
      OFFSET 2.921100 9.558500 0.000000
      CHANNELS 3 Yrotation Xrotation Zrotation
      JOINT LeftShoulder
      {
       OFFSET 13.519700 0.000000 0.000000
       CHANNELS 3 Yrotation Xrotation Zrotation
       JOINT LeftElbow
       {
        OFFSET 0.000000 -29.696600 0.000000
        CHANNELS 3 Yrotation Xrotation Zrotation
        JOINT LeftWrist
        {
         OFFSET 0.000000 -24.004700 0.000000
         CHANNELS 3 Yrotation Xrotation Zrotation
         End Site
         {
          OFFSET 0.000000 -17.728500 0.000000
         }
        }
       }
      }
     }
    }
   }
  }
 }
 JOINT RightHip
 {
  OFFSET -7.771700 -0.012900 -0.001300
  CHANNELS 3 Yrotation Xrotation Zrotation
  JOINT RightKnee
  {
   OFFSET 0.000000 -40.869800 0.001200
   CHANNELS 3 Yrotation Xrotation Zrotation
   JOINT RightAnkle
   {
    OFFSET 0.000000 -39.717900 0.002100
    CHANNELS 3 Yrotation Xrotation Zrotation
    JOINT RightToe
    {
     OFFSET 0.000000 -4.965400 11.033500
     CHANNELS 3 Yrotation Xrotation Zrotation
     End Site
     {
      OFFSET 0.000000 -1.423100 5.872300
     }
    }
   }
  }
 }
 JOINT LeftHip
 {
  OFFSET 7.771700 -0.012900 -0.001300
  CHANNELS 3 Yrotation Xrotation Zrotation
  JOINT LeftKnee
  {
   OFFSET 0.000000 -40.869800 0.001200
   CHANNELS 3 Yrotation Xrotation Zrotation
   JOINT LeftAnkle
   {
    OFFSET 0.000000 -39.717900 0.002100
    CHANNELS 3 Yrotation Xrotation Zrotation
    JOINT LeftToe
    {
     OFFSET 0.000000 -4.965400 11.033500
     CHANNELS 3 Yrotation Xrotation Zrotation
     End Site
     {
      OFFSET 0.000000 -1.423100 5.872300
     }
    }
   }
  }
 }
}
MOTION
Frames: 8
Frame Time: 0.008333
0.000000 85.388000 0.000000 0.000000 -5.767877 0.000000 0.000000 11.653817 0.000000 0.000000 -5.885947 0.000000 0.000000 -0.000000 0.000000 0.000000 -0.000000 0.000000 0.000000 12.528835 0.000000 0.000000 0.711642 0.000000 0.000000 -0.000000 0.000000 0.000000 0.000000 -90.000000 0.000000 -2.309062 0.000000 0.000000 2.309062 0.000000 0.000000 -0.000000 0.000000 0.000000 -0.000000 90.000000 0.000000 -2.309062 0.000000 0.000000 2.309062 0.000000 0.000000 8.520406 0.000000 0.000000 1.905762 0.000000 -0.000000 -4.658285 0.000000 0.000000 -0.000000 0.000000 0.000000 8.520406 0.000000 0.000000 1.905762 0.000000 -0.000000 -4.658285 0.000000 0.000000 -0.000000 0.000000
-6.128100 59.641762 34.819094 157.003146 -27.079460 -3.755948 4.896774 22.204871 1.813751 0.523410 3.081367 -0.041437 0.849039 4.999076 -0.053020 3.235093 18.655153 0.192186 3.649661 9.281450 -0.438754 7.327355 -18.434531 -2.570182 5.942827 -4.421300 -0.359418 40.584098 -44.977129 -20.222208 35.846284 -1.122446 -2.541201 12.694123 2.903431 -49.637313 -10.724013 -7.229558 0.151029 -67.835826 -33.537210 14.917201 -32.985137 8.412503 25.193533 -26.006425 1.809992 27.898232 6.872119 -42.333398 11.006415 0.460608 64.661265 12.578345 2.075695 6.616162 -6.839527 -0.775762 0.451971 -0.754494 -9.217853 -44.076718 8.005957 42.991558 71.998225 49.561448 -15.691854 -3.569891 -8.805129 0.316544 -0.855332 -0.039167
-6.113886 59.637680 34.843418 156.877565 -27.159527 -3.827987 4.900940 22.201066 1.855207 0.522379 3.081446 -0.040388 0.847311 4.999247 -0.051346 3.229454 18.655910 0.197909 3.660162 9.348329 -0.427330 7.337826 -18.310564 -2.547732 6.009996 -4.405158 -0.333051 40.313431 -44.862180 -20.177903 35.852946 -1.452645 -2.571242 12.708000 2.724470 -49.543251 -10.772696 -7.204368 0.113203 -67.620818 -33.404362 14.919600 -32.896807 8.084500 25.276394 -25.935329 1.717481 27.983090 6.762924 -42.239319 11.119188 0.468121 64.594669 12.688003 2.193601 6.711610 -6.807555 -0.815722 0.432061 -0.786781 -9.247230 -43.992917 8.118727 43.046201 71.986289 49.743220 -15.661971 -3.485448 -8.937808 0.425865 -0.830417 0.004207
-6.100407 59.633240 34.871358 156.755592 -27.248752 -3.895498 4.900320 22.199237 1.895123 0.521113 3.080461 -0.039285 0.845269 4.997864 -0.049614 3.223150 18.654194 0.203754 3.669572 9.421511 -0.419889 7.347581 -18.174822 -2.531985 6.077102 -4.381016 -0.307129 40.017018 -44.736533 -20.120921 35.847432 -1.819871 -2.613109 12.713211 2.564583 -49.439026 -10.830602 -7.167572 0.072824 -67.381580 -33.295570 14.923343 -32.773375 7.746823 25.367013 -25.884051 1.621175 28.053577 6.658383 -42.137384 11.229757 0.465790 64.526754 12.778001 2.308751 6.803536 -6.769700 -0.855240 0.421291 -0.818735 -9.264150 -43.900288 8.216415 43.106606 71.960799 49.936323 -15.647774 -3.397288 -9.071347 0.529991 -0.806188 0.047043
-6.089979 59.630292 34.897589 156.571556 -27.370784 -3.899567 4.946284 22.221057 1.906722 0.519767 3.078748 -0.037960 0.843133 4.995307 -0.047526 3.216938 18.650662 0.210871 3.677398 9.500507 -0.417520 7.356243 -18.028084 -2.524809 6.140386 -4.345547 -0.282625 39.698135 -44.604228 -20.056687 35.830319 -2.229210 -2.668128 12.699897 2.433870 -49.313477 -10.901081 -7.121241 0.029579 -67.112676 -33.166264 14.936200 -32.637374 7.341397 25.464042 -25.826682 1.549447 28.101512 6.647445 -42.006324 11.299845 0.465792 64.458854 12.858633 2.506886 6.861103 -6.756426 -0.978881 0.459193 -0.804847 -9.179787 -43.793158 8.134621 43.467154 71.838185 50.469519 -15.456551 -3.192267 -9.138126 0.418099 -0.863831 -0.009036
-6.080438 59.626289 34.929088 156.441149 -27.475874 -3.919488 4.943245 22.221450 1.914374 0.518115 3.076780 -0.036242 0.840525 4.992251 -0.044772 3.209369 18.646608 0.220239 3.684632 9.583582 -0.421395 7.366448 -17.873359 -2.529313 6.200496 -4.298202 -0.259990 39.356852 -44.464413 -19.988572 35.809652 -2.692356 -2.742382 12.665391 2.333185 -49.152833 -10.982380 -7.069449 -0.019467 -66.806392 -33.012455 14.957471 -32.495971 6.857892 25.565217 -25.758064 1.507198 28.123045 6.609121 -41.889890 11.363019 0.464626 64.382918 12.928353 2.624643 6.940605 -6.765162 -1.016193 0.471419 -0.818481 -9.100202 -43.694045 8.077245 43.671787 71.733067 50.858816 -15.379859 -3.064033 -9.249274 0.417048 -0.857043 -0.010550
-6.067229 59.623534 34.963078 156.318375 -27.592160 -3.952120 4.940659 22.224093 1.940625 0.515661 3.074851 -0.034307 0.836657 4.989222 -0.041674 3.197198 18.643086 0.230400 3.693133 9.669369 -0.432490 7.382220 -17.712980 -2.548260 6.260727 -4.239780 -0.242212 38.981333 -44.316472 -19.913616 35.807512 -3.229713 -2.835974 12.616872 2.261769 -48.938348 -11.067343 -7.014986 -0.077426 -66.468105 -32.828663 14.986054 -32.332138 6.294169 25.683786 -25.693259 1.481094 28.111046 6.568103 -41.766929 11.444833 0.469231 64.303668 12.994868 2.713241 7.029471 -6.721002 -1.041472 0.473763 -0.875219 -9.022732 -43.574796 8.050794 43.797060 71.632922 51.169451 -15.358857 -2.962220 -9.385183 0.460885 -0.830122 0.014931
-6.056955 59.624240 34.989787 156.242007 -27.754851 -3.956707 4.883874 22.270768 1.927474 0.512333 3.073080 -0.032530 0.831363 4.986527 -0.038908 3.179413 18.640504 0.238775 3.703902 9.757332 -0.450744 7.405417 -17.547920 -2.581754 6.372331 -4.142420 -0.262713 38.511497 -44.198844 -19.829183 35.847252 -3.862464 -2.944139 12.557884 2.222083 -48.654679 -11.150927 -6.956899 -0.144101 -66.097861 -32.613351 15.022440 -32.157614 5.648157 25.820113 -25.636029 1.463598 28.056012 6.542290 -41.600593 11.473264 0.562222 64.252081 13.115834 2.760664 7.078605 -6.574433 -1.088647 0.487977 -0.956507 -8.922566 -43.410859 7.940802 43.901755 71.524131 51.464178 -15.360663 -2.853560 -9.528856 0.517004 -0.811838 0.046509
